<mxfile host="app.diagrams.net" modified="2023-04-16T16:44:39.378Z" agent="Mozilla/5.0 (Windows NT 10.0; Win64; x64) AppleWebKit/537.36 (KHTML, like Gecko) Chrome/112.0.0.0 Safari/537.36" etag="0DTKpHQ0CjyIT4HFlqxT" version="21.1.8" type="device">
  <diagram name="第 1 页" id="ubwbWHE0Y8odQqVF72Tj">
    <mxGraphModel dx="724" dy="378" grid="1" gridSize="10" guides="1" tooltips="1" connect="1" arrows="1" fold="1" page="1" pageScale="1" pageWidth="827" pageHeight="1169" math="0" shadow="0">
      <root>
        <mxCell id="0" />
        <mxCell id="1" parent="0" />
        <mxCell id="xx4B4SB7nr3yOYLcLvOh-4" style="edgeStyle=orthogonalEdgeStyle;rounded=0;orthogonalLoop=1;jettySize=auto;html=1;exitX=0.5;exitY=1;exitDx=0;exitDy=0;entryX=0.25;entryY=0;entryDx=0;entryDy=0;" edge="1" parent="1" source="xx4B4SB7nr3yOYLcLvOh-1" target="xx4B4SB7nr3yOYLcLvOh-3">
          <mxGeometry relative="1" as="geometry" />
        </mxCell>
        <mxCell id="xx4B4SB7nr3yOYLcLvOh-1" value="组件 1" style="rounded=0;whiteSpace=wrap;html=1;" vertex="1" parent="1">
          <mxGeometry x="160" y="140" width="120" height="60" as="geometry" />
        </mxCell>
        <mxCell id="xx4B4SB7nr3yOYLcLvOh-5" style="edgeStyle=orthogonalEdgeStyle;rounded=0;orthogonalLoop=1;jettySize=auto;html=1;exitX=0.5;exitY=1;exitDx=0;exitDy=0;entryX=0.75;entryY=0;entryDx=0;entryDy=0;" edge="1" parent="1" source="xx4B4SB7nr3yOYLcLvOh-2" target="xx4B4SB7nr3yOYLcLvOh-3">
          <mxGeometry relative="1" as="geometry" />
        </mxCell>
        <mxCell id="xx4B4SB7nr3yOYLcLvOh-2" value="组件 2" style="rounded=0;whiteSpace=wrap;html=1;" vertex="1" parent="1">
          <mxGeometry x="360" y="140" width="120" height="60" as="geometry" />
        </mxCell>
        <mxCell id="xx4B4SB7nr3yOYLcLvOh-3" value="组件 A&lt;br&gt;（稳定组件）" style="rounded=0;whiteSpace=wrap;html=1;" vertex="1" parent="1">
          <mxGeometry x="270" y="260" width="120" height="60" as="geometry" />
        </mxCell>
        <mxCell id="xx4B4SB7nr3yOYLcLvOh-6" value="组件 B&lt;br&gt;（易变组件）" style="rounded=0;whiteSpace=wrap;html=1;" vertex="1" parent="1">
          <mxGeometry x="270" y="370" width="120" height="60" as="geometry" />
        </mxCell>
        <mxCell id="xx4B4SB7nr3yOYLcLvOh-9" style="edgeStyle=orthogonalEdgeStyle;rounded=0;orthogonalLoop=1;jettySize=auto;html=1;exitX=0.5;exitY=1;exitDx=0;exitDy=0;entryX=0.5;entryY=0;entryDx=0;entryDy=0;" edge="1" parent="1" source="xx4B4SB7nr3yOYLcLvOh-7" target="xx4B4SB7nr3yOYLcLvOh-8">
          <mxGeometry relative="1" as="geometry" />
        </mxCell>
        <mxCell id="xx4B4SB7nr3yOYLcLvOh-7" value="u" style="rounded=0;whiteSpace=wrap;html=1;" vertex="1" parent="1">
          <mxGeometry x="280" y="290" width="20" height="20" as="geometry" />
        </mxCell>
        <mxCell id="xx4B4SB7nr3yOYLcLvOh-8" value="c" style="rounded=0;whiteSpace=wrap;html=1;" vertex="1" parent="1">
          <mxGeometry x="280" y="380" width="20" height="20" as="geometry" />
        </mxCell>
        <mxCell id="xx4B4SB7nr3yOYLcLvOh-10" style="edgeStyle=orthogonalEdgeStyle;rounded=0;orthogonalLoop=1;jettySize=auto;html=1;exitX=0.5;exitY=1;exitDx=0;exitDy=0;entryX=0.25;entryY=0;entryDx=0;entryDy=0;" edge="1" parent="1" source="xx4B4SB7nr3yOYLcLvOh-11" target="xx4B4SB7nr3yOYLcLvOh-14">
          <mxGeometry relative="1" as="geometry" />
        </mxCell>
        <mxCell id="xx4B4SB7nr3yOYLcLvOh-11" value="组件 1" style="rounded=0;whiteSpace=wrap;html=1;" vertex="1" parent="1">
          <mxGeometry x="580" y="140" width="120" height="60" as="geometry" />
        </mxCell>
        <mxCell id="xx4B4SB7nr3yOYLcLvOh-12" style="edgeStyle=orthogonalEdgeStyle;rounded=0;orthogonalLoop=1;jettySize=auto;html=1;exitX=0.5;exitY=1;exitDx=0;exitDy=0;entryX=0.75;entryY=0;entryDx=0;entryDy=0;" edge="1" parent="1" source="xx4B4SB7nr3yOYLcLvOh-13" target="xx4B4SB7nr3yOYLcLvOh-14">
          <mxGeometry relative="1" as="geometry" />
        </mxCell>
        <mxCell id="xx4B4SB7nr3yOYLcLvOh-13" value="组件 2" style="rounded=0;whiteSpace=wrap;html=1;" vertex="1" parent="1">
          <mxGeometry x="780" y="140" width="120" height="60" as="geometry" />
        </mxCell>
        <mxCell id="xx4B4SB7nr3yOYLcLvOh-14" value="组件 A&lt;br&gt;（稳定组件）" style="rounded=0;whiteSpace=wrap;html=1;" vertex="1" parent="1">
          <mxGeometry x="690" y="260" width="120" height="80" as="geometry" />
        </mxCell>
        <mxCell id="xx4B4SB7nr3yOYLcLvOh-15" value="组件 B&lt;br&gt;（易变组件）" style="rounded=0;whiteSpace=wrap;html=1;" vertex="1" parent="1">
          <mxGeometry x="690" y="370" width="120" height="60" as="geometry" />
        </mxCell>
        <mxCell id="xx4B4SB7nr3yOYLcLvOh-20" style="edgeStyle=orthogonalEdgeStyle;rounded=0;orthogonalLoop=1;jettySize=auto;html=1;exitX=0.5;exitY=1;exitDx=0;exitDy=0;entryX=0.5;entryY=0;entryDx=0;entryDy=0;" edge="1" parent="1" source="xx4B4SB7nr3yOYLcLvOh-17" target="xx4B4SB7nr3yOYLcLvOh-19">
          <mxGeometry relative="1" as="geometry" />
        </mxCell>
        <mxCell id="xx4B4SB7nr3yOYLcLvOh-17" value="u" style="rounded=0;whiteSpace=wrap;html=1;" vertex="1" parent="1">
          <mxGeometry x="700" y="270" width="20" height="20" as="geometry" />
        </mxCell>
        <mxCell id="xx4B4SB7nr3yOYLcLvOh-21" style="edgeStyle=orthogonalEdgeStyle;rounded=0;orthogonalLoop=1;jettySize=auto;html=1;exitX=0.5;exitY=0;exitDx=0;exitDy=0;entryX=0.5;entryY=1;entryDx=0;entryDy=0;endArrow=block;endFill=0;" edge="1" parent="1" source="xx4B4SB7nr3yOYLcLvOh-18" target="xx4B4SB7nr3yOYLcLvOh-19">
          <mxGeometry relative="1" as="geometry" />
        </mxCell>
        <mxCell id="xx4B4SB7nr3yOYLcLvOh-18" value="c" style="rounded=0;whiteSpace=wrap;html=1;" vertex="1" parent="1">
          <mxGeometry x="700" y="380" width="20" height="20" as="geometry" />
        </mxCell>
        <mxCell id="xx4B4SB7nr3yOYLcLvOh-19" value="I" style="rounded=0;whiteSpace=wrap;html=1;" vertex="1" parent="1">
          <mxGeometry x="700" y="310" width="20" height="20" as="geometry" />
        </mxCell>
      </root>
    </mxGraphModel>
  </diagram>
</mxfile>
